<svg width="71" height="495" viewBox="0 0 71 495" fill="none" xmlns="http://www.w3.org/2000/svg">
<path d="M70.5439 14.3394C70.7701 12.7887 70.6838 11.2084 70.2901 9.69147C69.8964 8.17459 69.2032 6.75179 68.2515 5.50677C67.2997 4.26175 66.1086 3.21967 64.7481 2.44186C63.3876 1.66405 61.8853 1.16623 60.3295 0.977667C57.885 0.681384 55.4382 0.403253 52.9895 0.143302C51.4312 -0.0221344 49.8554 0.125795 48.3551 0.578401C46.8547 1.03101 45.4601 1.77916 44.2531 2.77879C43.0462 3.77842 42.0514 5.00936 41.3273 6.39917C40.6032 7.78898 40.1644 9.30959 40.0367 10.8715L0.473145 494.837L70.5439 14.3394Z" fill="#AED362"/>
</svg>
