<svg width="595" height="499" viewBox="0 0 595 499" fill="none" xmlns="http://www.w3.org/2000/svg">
<path d="M0.274801 475.324C-0.0582558 476.855 -0.0816534 478.438 0.205983 479.978C0.493619 481.519 1.08648 482.986 1.94968 484.294C2.81288 485.602 3.92897 486.724 5.23229 487.594C6.53561 488.465 7.99982 489.065 9.53876 489.361C74.7242 501.895 141.759 501.257 206.694 487.484C271.629 473.711 333.15 447.081 387.635 409.165C442.12 371.248 488.465 322.811 523.941 266.706C559.417 210.602 583.305 147.965 594.2 82.4857C594.457 80.9399 594.403 79.3581 594.04 77.8337C593.676 76.3092 593.012 74.8728 592.085 73.6089C591.159 72.345 589.989 71.2793 588.644 70.4743C587.299 69.6694 585.807 69.1415 584.256 68.9218L103.473 0.836914L0.274801 475.324Z" fill="#EB7F3E"/>
</svg>
