<svg width="201" height="482" viewBox="0 0 201 482" fill="none" xmlns="http://www.w3.org/2000/svg">
<path d="M199.452 38.8979C200.095 37.4684 200.444 35.9249 200.481 34.3582C200.518 32.7915 200.241 31.2332 199.667 29.7751C199.092 28.3171 198.232 26.9886 197.136 25.868C196.041 24.7473 194.732 23.8571 193.288 23.2497C171.674 14.1623 149.445 6.61416 126.767 0.661852C125.252 0.264001 123.672 0.173356 122.12 0.395246C120.569 0.617137 119.078 1.14709 117.734 1.95391C116.391 2.76073 115.222 3.82811 114.297 5.09326C113.372 6.35841 112.71 7.79575 112.349 9.32073L0.473145 481.837L199.452 38.8979Z" fill="#FECC4F"/>
</svg>
