<svg width="107" height="490" viewBox="0 0 107 490" fill="none" xmlns="http://www.w3.org/2000/svg">
<path d="M106.568 15.9889C106.91 14.4596 106.943 12.8773 106.665 11.335C106.387 9.79281 105.803 8.32179 104.948 7.00857C104.093 5.69534 102.983 4.56642 101.685 3.68826C100.387 2.8101 98.9269 2.20046 97.3898 1.89515C94.9746 1.41542 92.5558 0.953634 90.1337 0.509823C88.5922 0.227375 87.0098 0.256097 85.4796 0.594308C83.9494 0.932519 82.5023 1.57337 81.2234 2.47917C79.9446 3.38497 78.8598 4.53742 78.033 5.86869C77.2062 7.19996 76.654 8.68317 76.4089 10.231L0.473145 489.837L106.568 15.9889Z" fill="#F4E451"/>
</svg>
