<svg width="498" height="981" viewBox="0 0 498 981" fill="none" xmlns="http://www.w3.org/2000/svg">
<path d="M494.508 12.266C494.499 10.6989 494.176 9.14952 493.558 7.70907C492.941 6.26862 492.042 4.96619 490.914 3.87842C489.786 2.79064 488.451 1.93951 486.989 1.37508C485.527 0.810657 483.967 0.544337 482.401 0.591821C362.582 4.224 248.103 50.9993 160.025 132.313C71.9459 213.627 16.1906 324.011 3.01504 443.159C-10.1605 562.307 20.1299 682.205 88.3143 780.799C156.499 879.393 257.991 950.05 374.122 979.774C375.64 980.163 377.22 980.244 378.77 980.012C380.32 979.781 381.808 979.242 383.147 978.427C384.485 977.612 385.647 976.538 386.565 975.267C387.482 973.996 388.135 972.555 388.487 971.027L497.474 497.837L494.508 12.266Z" fill="#DE4D3C"/>
</svg>
