<svg width="35" height="498" viewBox="0 0 35 498" fill="none" xmlns="http://www.w3.org/2000/svg">
<path d="M34.1212 13.4241C34.2298 11.8608 34.0246 10.2915 33.5176 8.80858C33.0107 7.32569 32.2123 5.95919 31.1694 4.78947C30.1265 3.61974 28.8601 2.67044 27.4449 1.99741C26.0296 1.32438 24.4941 0.94121 22.9285 0.870471C20.4686 0.759319 18.0079 0.666433 15.5465 0.591821C13.9801 0.544337 12.42 0.810657 10.9581 1.37508C9.49611 1.93951 8.16181 2.79064 7.03369 3.87842C5.90556 4.96619 5.00641 6.26862 4.38914 7.70907C3.77186 9.14952 3.44894 10.6989 3.43936 12.266L0.473145 497.837L34.1212 13.4241Z" fill="#20AF5F"/>
</svg>
