<svg width="498" height="511" viewBox="0 0 498 511" fill="none" xmlns="http://www.w3.org/2000/svg">
<path d="M482.059 510.043C483.613 510.244 485.192 510.132 486.702 509.714C488.212 509.295 489.623 508.579 490.853 507.607C492.082 506.635 493.104 505.427 493.86 504.054C494.615 502.681 495.089 501.17 495.252 499.612C505.83 398.52 485.189 296.614 436.106 207.607C387.023 118.6 311.854 46.7631 220.714 1.76415C219.309 1.07036 217.779 0.664638 216.215 0.570862C214.651 0.477087 213.083 0.697161 211.605 1.21812C210.127 1.73907 208.768 2.55038 207.609 3.60433C206.449 4.65827 205.512 5.93353 204.852 7.3551L0.473145 447.836L482.059 510.043Z" fill="#EEA443"/>
</svg>
